<svg viewBox="0 0 128 128" xmlns="http://www.w3.org/2000/svg" aria-hidden="true" focusable="false">
  <defs>
    <linearGradient id="coin1" x1="14" y1="10" x2="116" y2="120" gradientUnits="userSpaceOnUse">
      <stop offset="0" stop-color="#9A82FF"/>
      <stop offset="0.55" stop-color="#5E3CE4"/>
      <stop offset="1" stop-color="#3A1F9E"/>
    </linearGradient>
    <radialGradient id="glow3" cx="62" cy="58" r="46" gradientUnits="userSpaceOnUse">
      <stop offset="0" stop-color="#FFE3A8" stop-opacity="0.55"/>
      <stop offset="1" stop-color="#FFE3A8" stop-opacity="0"/>
    </radialGradient>
    <linearGradient id="brass2" x1="60" y1="55" x2="60" y2="104" gradientUnits="userSpaceOnUse">
  <stop offset="0" stop-color="#FFE7A6"/>
  <stop offset="0.5" stop-color="#F6BC57"/>
  <stop offset="1" stop-color="#E2902C"/></linearGradient>
  </defs>
  <rect x="2" y="2" width="124" height="124" rx="30" fill="url(#coin1)"/>
  <rect x="2.75" y="2.75" width="122.5" height="122.5" rx="29.25" fill="none" stroke="#FFFFFF" stroke-opacity="0.14" stroke-width="1.5"/>
  <path d="M14 30C44 18 84 18 114 30C114 30 110 6 64 6C18 6 14 30 14 30Z" fill="#FFFFFF" opacity="0.10"/>
  <ellipse cx="62" cy="60" rx="48" ry="40" fill="url(#glow3)"/>
  
    <path d="M34 82C24 76 16.5 66 13.5 57.5C22 63.5 32 71 42.5 80Z" fill="url(#brass2)"/>
    <path d="M88 78C104 74 106.5 92 86.5 91.5" fill="none" stroke="#EFA63A" stroke-width="7.5" stroke-linecap="round"/>
    <path d="M26 84C26 73 41 66.5 60 66.5C79 66.5 94 73 94 84C94 91 80 97 60 97C40 97 26 91 26 84Z" fill="url(#brass2)"/>
    <path d="M36 79C44.5 74 75.5 74 84 79C75.5 82 44.5 82 36 79Z" fill="#FFFFFF" opacity="0.28"/>
    <circle cx="60" cy="61.5" r="5" fill="url(#brass2)"/>
    <path d="M50.5 97L69.5 97L66 104L54 104Z" fill="url(#brass2)"/>
    <path d="M95 29.5C96.2 37.8 99 40.8 107.5 42C99 43.2 96.2 46.2 95 54.5C93.8 46.2 91 43.2 82.5 42C91 40.8 93.8 37.8 95 29.5Z" fill="#FFF7DD"/>
    <circle cx="78.5" cy="31.5" r="2.1" fill="#FFF7DD"/>
    <circle cx="106" cy="60" r="1.6" fill="#FFF7DD" opacity="0.85"/>
</svg>
